<svg display="none" xmlns="http://www.w3.org/2000/svg">
    <symbol id="logo" viewBox="0 0 1753 1080">
        <g>
            <path d="M232.334 1079.43L260.996 1050.76V992.572H203.238V1021.23H58.1921V846.657H203.238V875.753H260.996V817.995L232.334 788.537H28.6618L0 817.995V1050.76L28.6618 1079.43H232.334ZM352.409 934.38V905.284L410.24 846.657H497.455V934.38H352.409ZM352.409 1079.43V992.572H497.455V1079.43H555.286V788.537H381.144L294.29 876.187V1079.43H352.409ZM655.023 934.38V846.657H800.069V934.38H655.023ZM857.827 1079.43V1021.23L829.165 992.572L857.827 963.476V817.995L829.165 788.537H596.831V1079.43H655.023V992.572H741.876L770.973 1021.23L800.069 1050.76V1079.43H857.827ZM957.564 934.38V846.657H1102.61V934.38H957.564ZM1160.37 1079.43V1021.23L1131.71 992.572L1160.37 963.476V817.995L1131.71 788.537H899.372V1079.43H957.564V992.572H1044.42L1073.51 1021.23L1102.61 1050.76V1079.43H1160.37ZM1260.1 1021.23V846.657H1405.15V1021.23H1260.1ZM1434.25 1079.43L1462.91 1050.76V817.995L1434.25 788.537H1230.57L1201.91 817.995V1050.76L1230.57 1079.43H1434.25ZM1652.03 1079.43V846.657H1753V788.537H1492V846.657H1593.84V1079.43H1652.03Z"/>
            <path d="M1099.72 248.212L1079.74 228.231C1103.91 229.16 1126.21 237.989 1149.44 244.494C1175.47 252.394 1194.05 246.818 1204.74 235.666C1231.23 208.25 1207.53 163.177 1171.75 154.813C1157.81 152.025 1146.19 152.025 1129.93 153.884C1151.77 140.873 1168.49 133.903 1187.55 114.852C1213.57 88.8306 1215.43 53.5158 1188.94 27.0298C1162.45 0.543682 1127.14 2.40235 1101.12 28.4238C1082.07 47.4752 1075.1 64.6679 1062.09 86.0426C1064.41 69.7792 1064.41 58.1625 1061.16 44.2225C1052.79 8.90771 1007.72 -15.255 980.304 11.231C969.152 21.9184 964.041 40.5051 971.476 66.5265C977.981 89.7599 986.81 112.064 987.739 136.227L967.758 116.711C916.645 65.1325 855.773 80.9312 801.872 121.822C786.174 133.683 780.477 141.303 765 157.5C801.872 191.5 813.5 219 785.5 250.5C780.268 301.807 760.606 314.328 712.5 324C706.397 353.978 662.123 364.866 631 340C582.812 421.978 558.838 483.654 545.375 538.629C535.617 578.591 525.859 625.522 558.386 657.584C590.448 690.111 637.379 680.353 677.341 670.595C726.131 658.978 777.245 636.209 822.317 614.37C871.107 590.207 918.039 562.792 963.112 532.124C1016.55 495.415 1063.48 454.989 1094.61 414.098C1135.04 360.197 1150.84 299.325 1099.72 248.212ZM610.893 530.265C615.54 534.912 622.975 534.912 627.621 530.265C631.803 525.618 631.803 518.184 627.621 514.002L589.983 476.364C605.317 438.261 618.373 410.179 643 366.5C655.531 372.106 662.133 373.032 673.5 372.5L697.786 397.37C702.433 402.017 709.868 402.017 714.05 397.37C718.696 393.188 718.696 385.753 714.05 381.107L701 366.5C710.028 361.971 719.258 351.5 726.5 341.5C780.662 328.508 798.072 310.278 805.242 257.505C835.242 221 815.812 179 795.742 157.5C801.872 152 808.533 145.444 815.812 139.944C859.491 106.953 908.746 90.2246 951.495 132.974L1083 264.475C1129 310.013 1105.76 363.449 1069.99 407.593L992.85 330.458C988.204 326.276 981.234 326.276 976.587 330.458C971.94 335.105 971.94 342.539 976.587 347.186L1054.65 425.25C1027.7 454.524 992.386 483.798 953.354 510.749L894.341 451.736C889.694 447.09 882.724 447.09 878.077 451.736C873.431 456.383 873.431 463.353 878.077 468L933.838 523.76C895.27 549.317 854.379 572.55 815.347 592.066L771.669 548.387C767.022 543.74 759.587 543.74 755.405 548.387C750.758 552.569 750.758 560.004 755.405 564.651L793.043 602.753C746.576 624.128 703.827 640.392 671.765 648.291C641.561 655.261 599.277 666.413 574.649 641.321C550.022 616.693 560.709 574.409 567.679 544.205C570.932 531.195 575.579 516.325 581.155 500.526L610.893 530.265ZM1057.9 206.392L1009.58 158.531C1014.69 120.893 1003.07 94.8713 993.315 60.4858C988.668 43.7578 990.992 33.0704 996.568 27.9591C1010.04 14.4837 1034.67 31.6764 1038.39 49.3338C1042.57 66.0619 1042.57 82.7899 1035.14 112.993C1033.28 120.428 1030.49 130.186 1036.06 135.762C1040.71 140.409 1048.15 140.409 1052.79 135.762C1083 105.559 1090.9 71.6379 1117.38 45.1518C1134.57 27.9591 1155.02 26.1004 1172.68 43.2931C1189.87 60.9505 1188.01 81.3959 1171.28 98.5886C1144.33 125.539 1110.41 132.974 1080.21 163.177C1076.96 166.43 1076.49 170.612 1076.96 173.4C1079.28 185.482 1091.82 183.623 1102.98 181.3C1131.79 174.33 1149.91 173.865 1166.64 177.582C1184.76 181.764 1201.49 205.927 1188.01 219.867C1182.9 224.978 1172.21 227.302 1155.48 222.655C1121.56 212.897 1095.08 201.28 1057.9 206.392Z"/>
        </g>
    </symbol>
    <symbol id="arrow" viewBox="0 0 60 60">
        <g>
            <circle cx="30" cy="30" r="29" stroke-width="2"/>
            <path d="M30 15V48M30 48C31 48 41 36 41 36M30 48C29 48 19 36 19 36" stroke-width="2" stroke-linecap="round"/>
        </g>
    </symbol>
    <symbol id="inst" viewBox="0 0 521 512">
        <g>
            <linearGradient id="SVGID_1_" gradientUnits="userSpaceOnUse" x1="-46.0041" y1="634.1208" x2="-32.9334" y2="647.1917" gradientTransform="matrix(32 0 0 -32 1519 20757)">
                <stop offset="0" style="stop-color:#ffc107"/>
                <stop offset="0.507" style="stop-color:#f44336"/>
                <stop offset="0.99" style="stop-color:#9c27b0"/>
            </linearGradient>
            <path style="fill:url(#SVGID_1_)" d="M352,0H160C71.648,0,0,71.648,0,160v192c0,88.352,71.648,160,160,160h192
	c88.352,0,160-71.648,160-160V160C512,71.648,440.352,0,352,0z M464,352c0,61.76-50.24,112-112,112H160c-61.76,0-112-50.24-112-112
	V160C48,98.24,98.24,48,160,48h192c61.76,0,112,50.24,112,112V352z"/>
            <linearGradient id="SVGID_2_" gradientUnits="userSpaceOnUse" x1="-42.2971" y1="637.8279" x2="-36.6404" y2="643.4846" gradientTransform="matrix(32 0 0 -32 1519 20757)">
                <stop offset="0" style="stop-color:#ffc107"/>
                <stop offset="0.507" style="stop-color:#f44336"/>
                <stop offset="0.99" style="stop-color:#9c27b0"/>
            </linearGradient>
            <path style="fill:url(#SVGID_2_)" d="M256,128c-70.688,0-128,57.312-128,128s57.312,128,128,128s128-57.312,128-128
	S326.688,128,256,128z M256,336c-44.096,0-80-35.904-80-80c0-44.128,35.904-80,80-80s80,35.872,80,80
	C336,300.096,300.096,336,256,336z"/>
            <linearGradient id="SVGID_3_" gradientUnits="userSpaceOnUse" x1="-35.5456" y1="644.5793" x2="-34.7919" y2="645.3331" gradientTransform="matrix(32 0 0 -32 1519 20757)">
                <stop offset="0" style="stop-color:#ffc107"/>
                <stop offset="0.507" style="stop-color:#f44336"/>
                <stop offset="0.99" style="stop-color:#9c27b0"/>
            </linearGradient>
            <circle style="fill:url(#SVGID_3_)" cx="393.6" cy="118.4" r="17.056"/>
        </g>
    </symbol>
</svg>
