<svg display="none" xmlns="http://www.w3.org/2000/svg">
    <symbol id="logo" viewBox="0 0 255.98 149.14">
        <g>
            <path class="a" d="M8,149.14V109H0v40.19Zm37.84,0,4-4v-8h-8v4h-20V117h20v4h8v-8l-4-4.07H17.74l-4,4.07v32.16l4,4Zm16.59-20v-4l8-8.1H82.51V129.1Zm0,20v-12h20v12h8V109H66.44l-12,12.11v28.08Zm41.81-20V117h20V129.1Zm28,20v-8l-4-4,4-4V113l-4-4.07H96.24v40.19h8v-12h12l4,4,4,4.08v4Zm13.78-20V117h20V129.1Zm28,20v-8l-4-4,4-4V113l-4-4.07H138v40.19h8v-12h12l4,4,4,4.08v4Zm13.78-8V117h20V141.1Zm24.06,8,4-4V113l-4-4.07H183.8l-4,4.07v32.16l4,4Zm30.09,0V117H256v-8H219.92v8H234v32.16Z"/>
            <path class="a" d="M158.9,34.29l-2.76-2.76c3.33.13,6.42,1.35,9.63,2.25,3.59,1.09,6.16.32,7.64-1.22,3.66-3.79.38-10-4.56-11.17a17.05,17.05,0,0,0-5.78-.13c3-1.8,5.33-2.76,8-5.39,3.6-3.6,3.85-8.48.19-12.14s-8.54-3.4-12.13.2c-2.63,2.63-3.6,5-5.39,8a14.46,14.46,0,0,0-.13-5.78c-1.16-4.88-7.39-8.22-11.17-4.56-1.54,1.48-2.25,4.05-1.22,7.64.9,3.21,2.12,6.29,2.24,9.63l-2.76-2.69c-7.06-7.13-15.47-4.95-22.92.7a39.15,39.15,0,0,0-5.17,4.79c3.27,2.54,7.91,7.08,2.91,13,.32,6.94-4.61,9.53-9.8,10C104,48.72,99.61,50.22,94.15,47,88,57.71,84.06,67.24,82.31,74.42c-1.35,5.52-2.7,12,1.79,16.43S95,94,100.54,92.65c6.74-1.6,13.8-4.75,20-7.77A163.69,163.69,0,0,0,140,73.52c7.38-5.07,13.87-10.66,18.17-16.31C163.78,49.77,166,41.36,158.9,34.29Zm-67.54,39a1.61,1.61,0,0,0,2.31,0,1.66,1.66,0,0,0,0-2.24l-5.2-5.2A138.58,138.58,0,0,1,95.7,50.55a12.36,12.36,0,0,0,4.07.74l3.59,3.61a1.59,1.59,0,0,0,2.25-2.25l-2.08-2.09c.71,0,3.16-2.41,3.86-3.53,5.87-1.14,10.3-4.44,10.74-11.48,4.22-6,1.37-10.77-1.33-13.76,1.06-1,1.8-1.59,2.87-2.45,6-4.56,12.84-6.87,18.75-1l18.17,18.17c6.35,6.29,3.14,13.68-1.8,19.77L144.13,45.66a1.67,1.67,0,0,0-2.25,0,1.63,1.63,0,0,0,0,2.31l10.79,10.78a84.33,84.33,0,0,1-14,11.82l-8.15-8.16a1.59,1.59,0,0,0-2.25,2.25l7.71,7.7a155.44,155.44,0,0,1-16.37,9.44l-6-6A1.59,1.59,0,0,0,111.32,78l5.2,5.27a101.5,101.5,0,0,1-16.75,6.29c-4.17,1-10,2.5-13.42-1s-1.93-9.25-1-13.42c.45-1.8,1.09-3.85,1.86-6Zm61.76-44.74-6.68-6.62c.71-5.2-.9-8.79-2.25-13.54-.64-2.31-.32-3.79.45-4.5,1.87-1.86,5.27.52,5.78,3s.58,4.62-.45,8.79c-.25,1-.64,2.38.13,3.15a1.63,1.63,0,0,0,2.31,0c4.18-4.18,5.27-8.86,8.93-12.52,2.37-2.38,5.2-2.63,7.64-.26s2.11,5.27-.2,7.64c-3.72,3.72-8.41,4.75-12.58,8.93a1.63,1.63,0,0,0-.45,1.41c.32,1.67,2.06,1.41,3.6,1.09,4-1,6.48-1,8.79-.51,2.51.57,4.82,3.91,3,5.84-.7.7-2.18,1-4.49.38C161.91,29.41,158.25,27.81,153.12,28.52Z"/>
        </g>
    </symbol>
    <symbol id="arrow" viewBox="0 0 60 60">
        <g>
            <circle cx="30" cy="30" r="29" stroke-width="2"/>
            <path d="M30 15V48M30 48C31 48 41 36 41 36M30 48C29 48 19 36 19 36" stroke-width="2" stroke-linecap="round"/>
        </g>
    </symbol>
    <symbol id="inst" viewBox="0 0 521 512">
        <g>
            <linearGradient id="SVGID_1_" gradientUnits="userSpaceOnUse" x1="-46.0041" y1="634.1208" x2="-32.9334" y2="647.1917" gradientTransform="matrix(32 0 0 -32 1519 20757)">
                <stop offset="0" style="stop-color:#ffc107"/>
                <stop offset="0.507" style="stop-color:#f44336"/>
                <stop offset="0.99" style="stop-color:#9c27b0"/>
            </linearGradient>
            <path style="fill:url(#SVGID_1_)" d="M352,0H160C71.648,0,0,71.648,0,160v192c0,88.352,71.648,160,160,160h192
	c88.352,0,160-71.648,160-160V160C512,71.648,440.352,0,352,0z M464,352c0,61.76-50.24,112-112,112H160c-61.76,0-112-50.24-112-112
	V160C48,98.24,98.24,48,160,48h192c61.76,0,112,50.24,112,112V352z"/>
            <linearGradient id="SVGID_2_" gradientUnits="userSpaceOnUse" x1="-42.2971" y1="637.8279" x2="-36.6404" y2="643.4846" gradientTransform="matrix(32 0 0 -32 1519 20757)">
                <stop offset="0" style="stop-color:#ffc107"/>
                <stop offset="0.507" style="stop-color:#f44336"/>
                <stop offset="0.99" style="stop-color:#9c27b0"/>
            </linearGradient>
            <path style="fill:url(#SVGID_2_)" d="M256,128c-70.688,0-128,57.312-128,128s57.312,128,128,128s128-57.312,128-128
	S326.688,128,256,128z M256,336c-44.096,0-80-35.904-80-80c0-44.128,35.904-80,80-80s80,35.872,80,80
	C336,300.096,300.096,336,256,336z"/>
            <linearGradient id="SVGID_3_" gradientUnits="userSpaceOnUse" x1="-35.5456" y1="644.5793" x2="-34.7919" y2="645.3331" gradientTransform="matrix(32 0 0 -32 1519 20757)">
                <stop offset="0" style="stop-color:#ffc107"/>
                <stop offset="0.507" style="stop-color:#f44336"/>
                <stop offset="0.99" style="stop-color:#9c27b0"/>
            </linearGradient>
            <circle style="fill:url(#SVGID_3_)" cx="393.6" cy="118.4" r="17.056"/>
        </g>
    </symbol>
</svg>
