<svg xmlns="http://www.w3.org/2000/svg" version="1.1" xmlns:xlink="http://www.w3.org/1999/xlink" xmlns:svgjs="http://svgjs.com/svgjs"><defs id="SvgjsDefs1013"/><g id="SvgjsG1014" rel="mainfill" name="main_text" xmlns:name="main_text" transform="translate(-2.869999885559082,-90.86316876411439)" fill="currentColor">
<path d="M10.91 240L10.91 199.81L2.87 199.81L2.87 240ZM48.75 240L52.71 236.04L52.71 228.00L44.73 228.00L44.73 231.96L24.69 231.96L24.69 207.84L44.73 207.84L44.73 211.86L52.71 211.86L52.71 203.88L48.75 199.81L20.61 199.81L16.65 203.88L16.65 236.04L20.61 240ZM65.34 219.96L65.34 215.94L73.33 207.84L85.38 207.84L85.38 219.96ZM65.34 240L65.34 228.00L85.38 228.00L85.38 240L93.37 240L93.37 199.81L69.31 199.81L57.31 211.92L57.31 240ZM107.15 219.96L107.15 207.84L127.19 207.84L127.19 219.96ZM135.17 240L135.17 231.96L131.21 228.00L135.17 223.98L135.17 203.88L131.21 199.81L99.11 199.81L99.11 240L107.15 240L107.15 228.00L119.15 228.00L123.17 231.96L127.19 236.04L127.19 240ZM148.95 219.96L148.95 207.84L168.99 207.84L168.99 219.96ZM176.97 240L176.97 231.96L173.01 228.00L176.97 223.98L176.97 203.88L173.01 199.81L140.91 199.81L140.91 240L148.95 240L148.95 228.00L160.95 228.00L164.97 231.96L168.99 236.04L168.99 240ZM190.75 231.96L190.75 207.84L210.79 207.84L210.79 231.96ZM214.81 240L218.77 236.04L218.77 203.88L214.81 199.81L186.67 199.81L182.71 203.88L182.71 236.04L186.67 240ZM244.90 240L244.90 207.84L258.85 207.84L258.85 199.81L222.79 199.81L222.79 207.84L236.86 207.84L236.86 240Z" fill="currentColor" style="fill: rgb(235, 127, 0);"/></g><g id="SvgjsG1015" rel="mainfill" name="symbol" xmlns:name="symbol_mainfill" transform="translate(81.02194321937858,0.01092164665459876) scale(64.2)" fill="currentColor"><defs/><g fill="currentColor">
<path class="fil0" d="M1.213 0.534l-0.043 -0.043c0.052,0.002 0.1,0.021 0.15,0.035 0.056,0.017 0.096,0.005 0.119,-0.019 0.057,-0.059 0.006,-0.156 -0.071,-0.174 -0.03,-0.006 -0.055,-0.006 -0.09,-0.002 0.047,-0.028 0.083,-0.043 0.124,-0.084 0.056,-0.056 0.06,-0.132 0.003,-0.189 -0.057,-0.057 -0.133,-0.053 -0.189,0.003 -0.041,0.041 -0.056,0.078 -0.084,0.124 0.005,-0.035 0.005,-0.06 -0.002,-0.09 -0.018,-0.076 -0.115,-0.128 -0.174,-0.071 -0.024,0.023 -0.035,0.063 -0.019,0.119 0.014,0.05 0.033,0.098 0.035,0.15l-0.043 -0.042c-0.11,-0.111 -0.241,-0.077 -0.357,0.011 -0.09,0.068 -0.18,0.174 -0.261,0.292 -0.142,0.209 -0.255,0.458 -0.291,0.605 -0.021,0.086 -0.042,0.187 0.028,0.256 0.069,0.07 0.17,0.049 0.256,0.028 0.105,-0.025 0.215,-0.074 0.312,-0.121 0.105,-0.052 0.206,-0.111 0.303,-0.177 0.115,-0.079 0.216,-0.166 0.283,-0.254 0.087,-0.116 0.121,-0.247 0.011,-0.357zm-1.052 0.607c0.01,0.01 0.026,0.01 0.036,0 0.009,-0.01 0.009,-0.026 0,-0.035l-0.081 -0.081c0.033,-0.082 0.078,-0.177 0.131,-0.271l0.101 0.101c0.01,0.01 0.026,0.01 0.035,0 0.01,-0.009 0.01,-0.025 0,-0.035l-0.111 -0.111c0.049,-0.083 0.103,-0.164 0.163,-0.239l0.135 0.135c0.01,0.01 0.026,0.01 0.035,0 0.01,-0.01 0.01,-0.026 0,-0.035l-0.138 -0.139c0.044,-0.051 0.09,-0.096 0.135,-0.13 0.094,-0.071 0.2,-0.107 0.292,-0.015l0.283 0.283c0.099,0.098 0.049,0.213 -0.028,0.308l-0.166 -0.166c-0.01,-0.009 -0.025,-0.009 -0.035,0 -0.01,0.01 -0.01,0.026 0,0.036l0.168 0.168c-0.058,0.063 -0.134,0.126 -0.218,0.184l-0.127 -0.127c-0.01,-0.01 -0.025,-0.01 -0.035,0 -0.01,0.01 -0.01,0.025 0,0.035l0.12 0.12c-0.083,0.055 -0.171,0.105 -0.255,0.147l-0.094 -0.094c-0.01,-0.01 -0.026,-0.01 -0.035,0 -0.01,0.009 -0.01,0.025 0,0.035l0.081 0.082c-0.1,0.046 -0.192,0.081 -0.261,0.098 -0.065,0.015 -0.156,0.039 -0.209,-0.015 -0.053,-0.053 -0.03,-0.144 -0.015,-0.209 0.007,-0.028 0.017,-0.06 0.029,-0.094l0.064 0.064zm0.962 -0.697l-0.104 -0.103c0.011,-0.081 -0.014,-0.137 -0.035,-0.211 -0.01,-0.036 -0.005,-0.059 0.007,-0.07 0.029,-0.029 0.082,0.008 0.09,0.046 0.009,0.036 0.009,0.072 -0.007,0.137 -0.004,0.016 -0.01,0.037 0.002,0.049 0.01,0.01 0.026,0.01 0.036,0 0.065,-0.065 0.082,-0.138 0.139,-0.195 0.037,-0.037 0.081,-0.041 0.119,-0.004 0.037,0.038 0.033,0.082 -0.003,0.119 -0.058,0.058 -0.131,0.074 -0.196,0.139 -0.007,0.007 -0.008,0.016 -0.007,0.022 0.005,0.026 0.032,0.022 0.056,0.017 0.062,-0.015 0.101,-0.016 0.137,-0.008 0.039,0.009 0.075,0.061 0.046,0.091 -0.011,0.011 -0.034,0.016 -0.07,0.006 -0.073,-0.021 -0.13,-0.046 -0.21,-0.035z" fill="currentColor" style="fill: rgb(235, 127, 0);"/></g></g></svg>